<?xml version="1.0" encoding="utf-8"?>
<!DOCTYPE svg PUBLIC "-//W3C//DTD SVG 1.0//EN" "http://www.w3.org/TR/2001/REC-SVG-20010904/DTD/svg10.dtd">
<svg version="1.0" xmlns="http://www.w3.org/2000/svg" width="872px" height="872px" viewBox="0 0 872 872" preserveAspectRatio="xMidYMid meet">
 <g fill="#f9e304">
  <path d="M0 436 l0 -436 436 0 436 0 0 436 0 436 -436 0 -436 0 0 -436z m461.55 373.84 c87.80 -7.92 169.63 -44.20 232.82 -103.29 43.43 -40.70 76.90 -92.65 95.55 -148.51 18.05 -54.16 22.65 -110.62 13.45 -166.05 -7.92 -48.03 -27.76 -98.01 -55.10 -139.06 -24.70 -36.96 -58.42 -71.79 -94.61 -97.67 -32.87 -23.50 -74.43 -43.69 -113.34 -55.18 -24.61 -7.24 -46.15 -11.58 -72.38 -14.65 -16.44 -1.87 -54.16 -1.79 -72.98 0.17 -82.18 8.35 -160.18 42.75 -220.55 97.25 -33.30 30.06 -62.25 68.04 -82.26 107.98 -24.18 48.28 -36.11 95.72 -37.38 148.17 -0.85 36.36 2.90 68.13 11.75 99.55 15.67 55.61 41.30 102.27 79.62 145.28 61.23 68.81 145.87 112.66 239.63 124.24 7.75 0.94 16.01 1.87 18.31 2.04 10.22 0.68 48.54 0.51 57.48 -0.26z"/>
  <path d="M269.09 747.25 c-1.62 -1.96 -0.68 -9.96 2.98 -25.80 0.43 -1.87 0.26 -1.96 -2.55 -1.36 -1.62 0.26 -3.92 0.26 -5.11 0 -1.87 -0.51 -2.13 -0.94 -2.13 -4.60 0 -7.32 0.09 -7.41 18.31 -7.66 11.33 -0.17 16.26 0 17.12 0.77 0.94 0.77 1.79 0.77 3.66 0 1.36 -0.60 3.92 -0.94 5.71 -0.77 3.15 0.26 3.32 0.43 3.58 3.49 0.17 1.79 -0.68 7.83 -1.87 13.45 -1.19 5.54 -2.21 10.30 -2.21 10.56 0 0.94 6.64 0.34 7.41 -0.60 0.51 -0.60 2.13 -6.64 3.66 -13.37 3.24 -13.71 3.49 -14.05 10.99 -13.54 3.92 0.26 3.92 0.26 4.17 3.66 0.17 1.87 -1.28 10.13 -3.24 18.31 -2.64 11.41 -3.83 15.24 -5.19 16.44 -1.53 1.28 -3.75 1.45 -17.03 1.45 l-15.24 0 0 -5.28 c0 -2.98 0.94 -9.20 2.04 -13.88 l1.96 -8.52 -3.75 -0.26 c-2.13 -0.17 -4.26 0.17 -4.94 0.68 -1.28 1.02 -3.24 7.92 -5.02 17.46 -1.62 8.69 -1.96 9.54 -4.17 10.13 -3.49 0.94 -8 0.51 -9.11 -0.77z"/>
  <path d="M347.27 747.93 c-1.28 -0.17 -3.15 -1.36 -4.17 -2.64 -1.62 -2.13 -1.79 -2.98 -1.36 -9.96 0.51 -8.18 3.66 -21.03 5.88 -24.52 1.87 -2.72 4.68 -3.15 21.80 -3.15 13.28 0 13.80 0.09 13.80 1.70 0 1.62 0.09 1.70 2.04 0.43 1.62 -1.11 4.17 -1.28 12.94 -1.11 l10.99 0.26 1.02 5.11 c0.60 2.81 1.11 5.62 1.28 6.30 0.17 0.68 2.30 -1.70 4.85 -5.28 2.55 -3.49 5.45 -6.64 6.39 -6.90 2.64 -0.68 11.58 -0.60 11.58 0.17 0 0.34 2.81 0.51 6.30 0.34 l6.30 -0.26 2.64 3.24 c1.45 1.79 3.75 4.68 5.19 6.56 2.72 3.58 2.72 3.66 4.34 -3.75 0.51 -2.55 1.36 -5.19 1.87 -5.71 0.51 -0.68 2.90 -1.11 6.22 -1.11 4.94 0 5.45 0.17 5.45 1.79 0 1.53 0.17 1.62 1.19 0.51 1.53 -1.45 31.51 -2.90 33.13 -1.62 0.60 0.43 1.79 0.51 2.72 0.09 2.55 -1.02 31.76 -0.94 32.36 0.09 0.34 0.60 1.02 0.60 2.13 0 2.04 -1.11 10.22 -1.11 10.22 0 0 0.51 0.77 0.51 2.21 0 3.07 -1.19 26.14 -1.11 28.78 0.09 4.68 2.21 5.02 10.99 1.02 26.74 -3.15 12.09 -3.75 12.52 -16.18 13.03 -12.60 0.51 -18.82 -0.26 -20.95 -2.55 l-1.70 -1.79 -1.70 2.21 c-1.62 1.96 -2.47 2.30 -6.47 2.30 -4.09 0 -4.60 -0.17 -4.60 -1.70 0 -1.62 -0.17 -1.62 -1.87 -0.51 -1.53 0.94 -6.64 1.28 -23.25 1.53 l-21.29 0.26 -0.26 -4 -0.26 -4.09 -4.17 0 c-3.92 0 -4.26 0.17 -4.77 2.38 -1.19 5.54 -0.85 5.28 -7.24 5.28 -5.02 0 -5.88 -0.26 -5.88 -1.45 0 -1.19 -0.26 -1.11 -1.36 0.43 -1.02 1.45 -2.13 1.87 -4.94 1.87 -4 0 -5.11 -0.85 -5.96 -4.60 -0.34 -1.36 -2.81 -5.45 -5.45 -9.20 l-4.85 -6.64 -2.30 9.11 c-1.36 5.45 -2.90 9.54 -3.75 10.22 -0.94 0.68 -4.60 0.94 -11.33 0.85 l-9.88 -0.17 -0.43 -2.98 c-0.43 -2.90 -0.51 -2.98 -1.53 -1.02 -0.94 1.62 -1.70 1.96 -4.68 1.70 -3.15 -0.26 -3.75 -0.68 -5.45 -3.66 l-1.87 -3.41 -0.60 3.66 c-0.77 4.85 -3.15 6.47 -8.60 5.79 -4.85 -0.60 -4.51 -0.60 -10.73 0 -4.60 0.43 -5.02 0.34 -5.45 -1.28 -0.43 -1.79 -0.51 -1.79 -2.13 -0.34 -1.45 1.28 -3.49 1.53 -13.37 1.62 -6.39 0.09 -12.60 0 -13.88 -0.26z m14.48 -11.92 c-0.85 -0.17 -2.21 -0.17 -2.98 0 -0.85 0.26 -0.17 0.43 1.45 0.43 1.62 0 2.30 -0.17 1.53 -0.43z m161.80 -1.79 c1.53 -2.04 -0.43 -2.55 -8.94 -2.64 -5.79 -0.09 -7.41 -0.43 -8.69 -1.70 -1.62 -1.62 -1.62 -1.53 -2.55 2.04 -0.51 2.04 -0.94 3.92 -0.94 4.09 0 0.17 4.51 0.09 10.05 -0.09 7.92 -0.26 10.22 -0.60 11.07 -1.70z m48.20 -0.77 c1.53 -3.07 3.32 -11.92 2.64 -13.03 -0.26 -0.43 -2.38 -0.85 -4.60 -0.85 -3.58 0 -4.17 0.26 -5.11 2.21 -0.94 2.04 -3.41 11.75 -3.49 13.37 0 0.34 2.13 0.60 4.68 0.60 4.17 0 4.77 -0.26 5.88 -2.30z m-80.47 -8.52 c1.45 -5.11 1.28 -5.36 -2.81 -5.36 -4.34 0 -4.43 0.09 -5.54 4.94 l-0.77 3.58 4.17 0 c4 0 4.09 -0.09 4.94 -3.15z m47.69 -3.83 c0.09 -1.28 -0.60 -1.53 -3.92 -1.53 -3.83 0 -3.92 0.09 -1.96 1.11 1.19 0.60 2.72 2.21 3.41 3.75 l1.28 2.64 0.51 -2.21 c0.34 -1.28 0.60 -2.98 0.68 -3.75z m-158.05 0.60 l0.34 -2.21 -10.64 0.26 c-9.96 0.26 -10.73 0.34 -11.92 2.21 l-1.19 1.87 11.50 0 11.50 0 0.43 -2.13z"/>
  <path d="M179.85 702.37 c-0.60 -0.60 -1.02 -2.04 -1.02 -3.24 0 -2.47 4 -24.70 4.77 -26.82 0.43 -1.02 -0.34 -1.28 -4.68 -1.28 l-5.19 0 0 -5.11 c0 -6.13 1.28 -7.15 8.94 -7.15 2.81 0 19.33 0.09 36.79 0.17 35.85 0.17 32.70 -0.51 33.81 7.41 1.28 8.94 1.19 8.86 5.28 1.87 4.94 -8.52 6.90 -9.96 13.20 -9.96 2.72 0 5.11 0.34 5.36 0.77 0.34 0.51 1.79 0.43 3.66 -0.09 1.70 -0.43 7.92 -0.68 13.88 -0.51 8.52 0.17 11.24 0.60 13.03 1.79 2.30 1.45 2.38 1.45 4.60 -0.26 2.13 -1.62 6.39 -2.21 9.11 -1.19 1.96 0.77 1.70 4.77 -1.19 18.65 -1.28 6.56 -2.21 12.26 -1.96 12.60 0.26 0.43 4.60 0.60 9.71 0.43 8.86 -0.26 9.28 -0.34 9.28 -2.13 0 -2.04 3.07 -18.48 4.34 -23.42 1.36 -5.11 3.49 -5.79 19.33 -5.79 12.43 0 13.80 0.17 15.84 1.79 2.04 1.62 2.21 2.21 2.21 8.52 0 7.58 -2.72 22.23 -5.11 27.76 -0.85 1.96 -2.30 3.92 -3.24 4.43 -1.11 0.60 -7.32 0.94 -15.84 0.94 -13.97 0 -14.05 0 -15.67 -2.13 l-1.70 -2.13 -0.51 2.13 -0.51 2.13 -14.90 0 -14.82 0 -1.36 -2.55 c-0.77 -1.45 -1.28 -4.68 -1.28 -8.09 l0 -5.54 -9.79 0 c-11.24 0 -10.90 -0.17 -11.92 8.09 -1.02 8.35 -0.60 8.09 -13.20 8.09 l-11.07 0 0 -2.47 c0 -2.38 -0.09 -2.47 -2.38 -1.62 -2.90 1.11 -8.60 0.17 -9.28 -1.53 -0.68 -1.96 -1.70 -1.36 -2.21 1.28 -1.02 5.02 -1.45 5.11 -20.44 4.68 -9.45 -0.26 -18.05 -0.85 -18.99 -1.36 -4.09 -1.96 -4.85 -9.79 -2.04 -21.97 0.94 -4 1.70 -7.49 1.70 -7.83 0 -0.94 -6.64 -0.85 -7.15 0 -0.17 0.34 -1.53 6.98 -2.98 14.73 -2.13 11.33 -2.90 14.22 -4.43 15.50 -2.13 1.70 -8.43 1.96 -9.96 0.43z m53.82 -19.59 c0.85 -4.34 1.70 -8.77 1.96 -9.79 0.43 -1.96 0.34 -1.96 -8.18 -1.96 -7.58 0 -8.60 0.17 -9.45 1.70 -0.85 1.53 -0.51 1.62 5.28 1.87 l6.22 0.26 0.26 4.51 c0.34 6.22 -0.51 6.98 -7.49 6.98 -4.17 0 -6.05 0.34 -6.90 1.36 -1.79 2.13 0.51 2.90 9.11 2.90 l7.75 0 1.45 -7.83z m127.31 6.73 c1.11 -1.36 4.43 -16.86 3.83 -17.80 -0.60 -0.94 -9.54 -0.85 -10.05 0.09 -0.77 1.28 -3.75 17.46 -3.32 18.22 0.68 1.11 8.52 0.68 9.54 -0.51z m-66.85 -15.07 c3.66 -1.36 2.81 -3.41 -1.45 -3.41 -5.19 0 -7.92 2.98 -3.32 3.66 1.28 0.17 2.38 0.43 2.47 0.51 0.09 0 1.11 -0.26 2.30 -0.77z"/>
  <path d="M496.29 702.88 c-1.19 -1.19 -0.68 -6.56 1.87 -20.01 3.75 -19.93 4.09 -21.12 7.15 -22.99 1.70 -1.11 3.83 -1.53 6.05 -1.45 l3.41 0.26 0 4.68 c0 2.55 -0.26 6.13 -0.60 7.92 l-0.60 3.15 3.75 0 c2.04 0 4 -0.43 4.34 -1.02 0.34 -0.60 1.45 -3.92 2.47 -7.49 l1.79 -6.39 41.64 -0.26 c37.30 -0.17 41.81 0 42.75 1.19 0.85 1.19 1.19 1.19 3.32 -0.26 2.04 -1.28 4.26 -1.53 14.90 -1.53 11.50 0 12.77 0.17 14.99 1.79 2.38 1.79 2.55 1.79 4.34 0.34 2.21 -1.87 16.69 -3.07 25.21 -2.21 7.92 0.85 9.03 2.21 9.03 10.81 0 7.15 -3.32 24.52 -5.45 28.78 -2.21 4.17 -2.81 4.26 -17.88 4.51 l-14.31 0.26 -2.04 -2.38 c-1.70 -2.04 -2.04 -3.32 -2.04 -8.35 l0 -5.88 -2.55 0 -2.55 0 2.21 4.85 c1.36 3.24 2.04 6.05 1.87 8.35 -0.26 3.32 -0.34 3.41 -3.66 3.66 -7.32 0.60 -8.77 -0.17 -12.01 -6.90 -1.62 -3.32 -2.90 -6.56 -2.90 -7.24 0 -0.60 -0.34 -0.94 -0.68 -0.68 -0.43 0.26 -1.19 3.15 -1.79 6.47 -0.60 3.32 -1.62 6.56 -2.30 7.15 -0.85 0.85 -3.75 1.19 -10.99 1.19 -11.58 0.09 -11.84 -0.09 -15.41 -9.37 -2.64 -6.56 -3.15 -6.39 -4.60 1.62 -1.45 7.75 -2.21 8.26 -10.64 7.58 -3.75 -0.26 -11.84 -0.51 -18.05 -0.51 -10.30 0 -11.41 -0.17 -12.94 -1.79 l-1.62 -1.79 -0.94 1.79 c-0.94 1.62 -1.70 1.70 -12.01 1.70 l-11.07 0 0 -2.90 c0 -1.53 0.43 -4.77 1.02 -7.15 0.51 -2.38 0.85 -4.51 0.60 -4.68 -0.17 -0.17 -2.04 -0.51 -4.17 -0.60 l-3.83 -0.34 -1.79 7.49 c-1.02 4.17 -2.13 7.75 -2.38 8 -0.85 0.85 -10.22 1.36 -10.90 0.60z m109.94 -15.41 c0.09 -1.28 -2.13 -1.45 -2.90 -0.34 -0.26 0.43 0 1.87 0.60 3.15 l1.11 2.30 0.51 -2.04 c0.34 -1.11 0.60 -2.55 0.68 -3.07z m-32.02 -5.54 c0.77 -4.85 1.45 -9.28 1.45 -9.79 0 -0.85 -2.30 -1.11 -8.52 -1.11 -4.68 0 -8.52 0.17 -8.52 0.34 0 0.17 -0.26 0.94 -0.51 1.70 -0.43 1.19 0.34 1.36 5.45 1.36 6.56 0 6.98 0.34 6.98 5.62 0 5.54 -1.02 6.30 -8 6.30 -4.17 0 -6.56 0.34 -7.24 1.11 -1.79 2.30 0.77 3.15 9.28 3.15 l8.18 0 1.45 -8.69z m89.93 7.58 c1.28 -1.62 4.34 -17.03 3.58 -17.88 -0.43 -0.43 -2.72 -0.60 -5.28 -0.43 l-4.60 0.26 -1.87 8.52 c-1.36 6.13 -1.62 8.77 -0.94 9.54 1.19 1.45 7.83 1.45 9.11 0z m-65.66 -16.95 c0.43 -2.30 -5.88 -2.13 -8 0.26 -1.53 1.70 -1.53 1.70 3.07 1.45 3.66 -0.17 4.77 -0.60 4.94 -1.70z m33.21 -0.09 c0.26 -1.36 -0.26 -1.53 -4.26 -1.28 -3.58 0.17 -4.60 0.60 -4.77 1.79 -0.26 1.36 0.26 1.53 4.26 1.28 3.58 -0.17 4.60 -0.60 4.77 -1.79z"/>
  <path d="M384.05 698.11 c0 -6.13 5.96 -36.28 7.41 -37.81 0.94 -0.94 4.34 -1.19 15.67 -1.19 13.03 0 14.56 0.17 16.01 1.62 1.62 1.62 1.70 1.62 3.15 0 1.36 -1.45 2.72 -1.62 17.12 -1.62 10.05 0 15.58 0.34 15.58 0.85 0 0.51 0.94 0.26 2.04 -0.43 1.28 -0.85 3.41 -1.28 5.79 -1.11 3.41 0.26 3.66 0.43 3.92 2.81 0.17 1.45 -0.94 8.43 -2.38 15.58 -1.36 7.15 -2.55 13.20 -2.55 13.45 0 0.17 4.43 0.34 9.79 0.34 l9.79 0 0 4.51 c0 7.15 -0.51 7.41 -16.86 7.41 -12.94 0 -13.80 -0.09 -14.99 -1.79 l-1.19 -1.79 -0.94 1.79 c-0.94 1.70 -1.62 1.79 -14.99 1.79 -13.03 0 -14.05 -0.09 -15.16 -1.70 l-1.19 -1.70 -1.53 1.70 c-1.45 1.62 -2.64 1.70 -18.05 1.70 l-16.44 0 0 -4.43z m23.76 -8.60 c0.68 -0.85 4.34 -16.09 4.34 -18.14 0 -0.77 -9.28 -0.26 -9.79 0.51 -0.34 0.60 -3.83 17.29 -3.83 18.48 0 0.85 8.52 0 9.28 -0.85z m44.37 -1.19 c0 -2.04 0.51 -4.60 2.98 -15.33 0.43 -1.96 0.43 -1.96 -9.37 -1.96 -5.36 0 -9.79 0.17 -9.79 0.34 0 0.17 -0.26 0.94 -0.51 1.70 -0.43 1.11 0.51 1.36 5.79 1.53 l6.22 0.26 0.26 4.34 c0.34 5.71 -1.02 7.15 -6.64 7.15 -5.02 0 -8.52 1.19 -8.52 2.98 0 1.11 1.62 1.28 9.79 1.28 l9.79 0 0 -2.30z"/>
  <path d="M406.71 649.74 c-60.97 -3.83 -114.19 -17.29 -161.46 -40.88 -18.73 -9.28 -36.45 -20.01 -52.12 -31.51 -3.66 -2.64 -4.09 -3.32 -3.83 -5.96 0.17 -2.81 0.34 -2.98 3.75 -3.24 2.64 -0.17 5.62 0.60 11.50 3.07 46.15 19.59 105.76 35.17 159.50 41.81 26.23 3.24 37.81 3.92 70.68 3.92 32.79 0 43.94 -0.60 71.11 -3.92 44.62 -5.36 96.14 -17.37 137.53 -32.10 6.56 -2.38 14.99 -5.36 18.73 -6.64 3.75 -1.28 8.69 -3.24 10.99 -4.34 3.07 -1.36 5.79 -1.96 9.62 -1.96 l5.36 0 0 2.98 c0 2.72 -0.51 3.24 -8.18 8.60 -29.29 20.44 -59.44 35.51 -95.03 47.60 -34.15 11.67 -64.21 17.88 -102.87 21.37 -17.29 1.53 -59.27 2.21 -75.28 1.19z"/>
  <path d="M222.85 562.88 c-18.99 -3.41 -40.28 -15.84 -50.50 -29.46 -5.54 -7.41 -9.96 -16.26 -12.43 -24.78 -1.70 -5.88 -1.96 -8.52 -1.96 -22.82 0 -16.01 0.09 -16.26 2.81 -24.18 9.28 -26.65 33.04 -48.11 61.48 -55.52 10.90 -2.81 32.27 -3.24 43.77 -0.94 10.39 2.21 23.76 8.52 30.15 14.22 l4.43 4 4.85 -4.34 c4.51 -4.09 5.11 -4.34 9.37 -4.34 l4.51 0 0 30.23 0 30.23 -3.32 0 c-3.15 0 -3.75 -0.43 -8.60 -6.39 -4.60 -5.62 -11.58 -11.92 -20.44 -18.39 -9.88 -7.24 -25.97 -13.45 -36.62 -14.14 -9.11 -0.60 -14.82 1.70 -21.80 8.60 -9.88 9.88 -13.97 21.89 -14.05 41.39 -0.26 25.46 10.47 41.64 29.80 45.13 4.34 0.77 6.22 0.68 10.47 -0.43 5.96 -1.53 14.14 -5.62 16.86 -8.52 1.70 -1.79 1.79 -2.13 0.60 -4.34 -1.28 -2.47 -11.67 -12.86 -25.12 -25.21 -6.81 -6.22 -7.07 -6.64 -6.81 -9.79 l0.26 -3.24 55.61 -0.26 55.52 -0.17 0 3.24 c0 2.30 -0.60 3.83 -1.79 4.94 -1.02 0.85 -8.35 8.43 -16.35 16.78 l-14.48 15.24 0.60 21.20 0.60 21.20 -3.24 0 c-2.72 0 -4.17 -0.85 -9.20 -5.11 -8.94 -7.58 -8.77 -7.49 -15.07 -4.43 -9.37 4.60 -13.71 6.22 -22.40 8.43 -7.49 1.87 -10.64 2.21 -25.97 2.47 -9.62 0.09 -19.33 -0.09 -21.54 -0.51z"/>
  <path d="M410.28 555.47 l-47.52 -0.26 0 -2.98 c0 -2.64 1.19 -4.09 12.77 -15.50 16.26 -16.01 17.29 -17.37 17.29 -24.35 0 -6.39 -0.26 -6.98 -11.41 -24.18 -30.32 -46.92 -31.93 -48.96 -48.28 -62.33 -8.43 -6.90 -8.77 -7.32 -8.52 -10.22 l0.26 -3.07 51.78 -0.26 51.69 -0.17 0 2.64 c0 2.04 -1.79 4.77 -8.60 12.94 -4.68 5.71 -8.86 10.99 -9.28 11.75 -0.60 0.94 1.62 4.60 8.18 14.05 4.94 6.98 9.28 13.03 9.71 13.37 0.51 0.60 18.73 -27.34 18.73 -28.87 0 -0.26 -3.83 -4.68 -8.52 -9.79 -7.83 -8.52 -8.52 -9.54 -8.52 -12.69 l0 -3.41 74.68 0.17 74.68 0.26 7.15 25.97 c3.92 14.31 7.41 26.23 7.75 26.57 0.34 0.34 2.21 -5.54 4.17 -13.20 2.04 -7.58 5.28 -19.67 7.24 -26.74 l3.58 -13.03 44.79 0 c24.61 0 47.69 -0.26 51.26 -0.51 l6.56 -0.60 0 3.15 c0 2.90 -1.02 4.09 -16.18 18.99 l-16.09 16.01 0.17 34.74 0.17 34.74 16.01 15.84 c13.88 13.80 15.92 16.18 15.92 18.48 l0 2.64 -74.34 -0.09 c-40.79 0 -91.63 -0.09 -112.75 -0.17 l-38.58 -0.17 0 -2.81 c0 -2.38 1.62 -4.34 14.14 -16.78 7.75 -7.75 14.65 -15.07 15.33 -16.35 0.94 -1.87 1.19 -8.43 1.19 -35.94 l0 -33.72 -5.88 -6.56 c-3.24 -3.66 -7.66 -8.35 -9.88 -10.47 l-3.92 -3.83 -2.98 3.41 c-12.52 14.48 -18.05 21.89 -33.38 45.05 -9.54 14.48 -17.71 27.51 -18.14 28.95 -0.43 1.45 -0.77 4.60 -0.77 6.98 0 5.79 1.70 8 18.14 23.67 12.69 12.09 13.37 12.86 13.37 16.01 l0 3.24 -7.83 -0.17 c-4.34 -0.17 -29.29 -0.34 -55.35 -0.43z m155.50 -32.61 c-10.05 -37.04 -19.25 -70.25 -19.42 -70.42 -0.17 -0.17 -0.09 14.90 0.09 33.47 l0.26 33.72 12.35 12.86 c6.81 7.07 12.35 13.20 12.35 13.63 0 0.51 0.17 0.68 0.34 0.51 0.26 -0.26 -2.47 -10.90 -5.96 -23.76z m66.08 -38.24 c0 -18.90 -0.17 -34.23 -0.34 -34.06 -0.60 0.60 -23.08 84.73 -24.95 93.16 -0.17 0.94 5.36 -4.26 12.43 -11.50 l12.86 -13.20 0 -34.40z"/>
  <path d="M170.74 390.78 c-6.73 -1.53 -14.65 -4.51 -21.97 -8.18 l-7.58 -3.75 -6.81 5.11 c-5.19 4 -7.49 5.19 -9.71 5.19 l-2.90 0 0 -29.80 0 -29.80 3.83 0 3.92 0 -2.47 -3.58 c-6.39 -9.37 -8.69 -17.37 -8.69 -30.49 0 -21.29 8.26 -36.79 23.42 -44.03 6.30 -2.98 6.64 -3.07 19.42 -3.41 10.39 -0.34 14.05 -0.17 18.39 1.02 5.62 1.45 15.07 5.88 18.73 8.86 l2.13 1.62 6.73 -4.17 c5.36 -3.32 7.41 -4.17 10.47 -4.17 l3.75 0 0 27.68 c0 19.59 -0.26 27.68 -0.94 27.68 -0.51 0 0.26 1.36 1.70 2.98 7.07 8.09 9.79 17.63 9.79 34.91 0.09 18.14 -2.13 24.87 -11.33 34.74 -9.11 9.62 -17.37 12.52 -35.85 12.43 -5.88 -0.09 -12.18 -0.43 -14.05 -0.85z m24.87 -29.89 c1.79 -1.19 3.75 -3.15 4.43 -4.34 1.11 -2.04 1.02 -2.47 -0.26 -3.92 -1.79 -1.96 -4.60 -2.55 -24.70 -5.71 -21.63 -3.32 -32.61 -6.90 -40.96 -13.45 l-3.41 -2.64 2.98 4.26 c4.09 5.88 13.11 14.82 18.73 18.48 14.22 9.28 34.91 12.77 43.17 7.32z m10.05 -65.57 c-12.26 -14.48 -35.60 -25.72 -47.18 -22.82 -4.68 1.19 -9.11 3.75 -10.39 6.13 -0.77 1.45 -0.51 2.13 1.45 4.17 3.41 3.58 7.15 4.68 29.12 8.43 12.26 2.13 21.71 4.17 24.70 5.45 2.64 1.11 4.94 2.04 5.11 2.13 0.17 0 -1.11 -1.53 -2.81 -3.49z"/>
  <path d="M404.07 390.53 c-10.73 -2.55 -16.44 -5.36 -26.31 -13.03 l-5.79 -4.51 -8.43 0 -8.43 0 0 -3.07 c0 -2.21 0.85 -4 3.07 -6.81 l3.07 -3.75 -2.98 -7.49 c-1.62 -4.09 -3.49 -9.79 -4 -12.77 -0.60 -2.90 -1.28 -5.28 -1.45 -5.28 -0.17 0 -1.62 0.94 -3.07 2.04 -8.35 6.22 -13.63 7.24 -40.45 7.92 -17.54 0.43 -21.71 0.77 -22.06 1.70 -1.19 2.98 1.87 8.09 12.09 20.10 9.11 10.81 10.64 13.11 10.64 15.58 l0 2.90 -42.15 0 -42.15 0 0 -3.41 c0 -2.98 0.77 -4.26 8.35 -12.77 4.51 -5.28 9.54 -11.24 11.07 -13.37 l2.72 -3.83 0 -30.40 c0 -27.16 -0.17 -30.57 -1.45 -32.44 -0.77 -1.19 -5.62 -7.15 -10.73 -13.37 -8.52 -10.47 -9.20 -11.50 -8.94 -14.48 l0.26 -3.24 13.63 -0.68 c7.49 -0.34 29.89 -0.51 49.82 -0.34 39.77 0.34 41.30 0.51 51.26 5.88 6.73 3.58 14.05 11.58 17.29 18.73 1.45 3.15 2.72 5.79 2.98 5.79 0.26 0 1.19 -1.28 2.04 -2.72 2.81 -4.94 9.88 -13.20 14.31 -16.78 2.55 -2.04 3.75 -3.49 2.90 -3.49 -1.02 0 -1.36 -0.85 -1.36 -3.24 0 -2.64 1.11 -4.94 5.79 -11.75 3.15 -4.60 7.32 -10.39 9.11 -12.86 1.87 -2.47 4.85 -7.07 6.56 -10.22 l3.15 -5.88 -2.04 -4.17 c-1.11 -2.38 -2.55 -4.94 -3.24 -5.71 -1.11 -1.45 -1.36 -1.45 -4.09 -0.09 -1.53 0.77 -4.77 1.53 -7.15 1.70 -3.83 0.34 -5.02 -0.09 -11.33 -3.66 -9.37 -5.36 -16.44 -11.92 -21.80 -20.27 -2.47 -3.83 -6.13 -9.20 -8.26 -12.01 l-3.75 -5.11 -8.09 1.28 -8.09 1.28 1.87 13.20 c2.13 15.07 2.38 22.23 0.94 23.67 -0.60 0.60 -3.07 1.02 -5.54 1.02 -3.83 0 -4.51 0.26 -4.51 1.62 0 2.04 -1.11 2.47 -8.94 3.15 -4.34 0.43 -6.39 0.26 -6.39 -0.34 0 -0.60 -0.85 -0.68 -2.72 -0.09 -4 1.11 -9.71 0.94 -10.73 -0.34 -0.51 -0.60 -1.87 -7.32 -3.15 -15.07 -1.19 -7.75 -2.38 -14.82 -2.55 -15.75 -0.34 -1.53 -1.02 -1.79 -4.85 -1.70 l-4.51 0 0 -5.11 0 -5.11 3.75 -0.26 3.75 -0.26 -0.60 -4.85 c-0.26 -2.64 -0.77 -10.81 -1.11 -18.22 l-0.51 -13.28 5.62 -0.60 c5.19 -0.60 5.71 -0.77 5.71 -2.55 0 -1.70 0.60 -2.04 5.36 -2.81 2.90 -0.51 8.60 -0.94 12.69 -0.94 6.30 -0.09 7.58 0.17 8.26 1.45 0.77 1.45 5.71 25.38 6.22 30.40 0.26 2.90 -0.43 2.81 10.47 0.85 6.98 -1.19 14.56 -3.49 16.35 -4.85 0.51 -0.43 4.17 -0.68 8.09 -0.60 3.83 0.09 13.20 -0.51 20.69 -1.28 7.49 -0.77 17.12 -1.36 21.29 -1.28 7.75 0.17 7.75 0.17 14.65 -3.92 0.17 -0.09 -0.43 -1.79 -1.19 -3.75 -1.19 -3.15 -1.28 -4.85 -0.51 -13.20 1.36 -14.99 3.58 -17.63 15.07 -18.22 6.22 -0.26 7.24 -0.09 9.88 1.70 3.92 2.64 5.79 8.26 6.47 19.25 0.51 6.73 0.34 8.86 -0.77 10.99 -1.62 3.07 -1.53 3.24 5.19 6.56 4.26 2.13 4.68 2.21 5.62 0.85 0.94 -1.28 2.13 -1.36 9.11 -0.94 4.43 0.34 13.54 1.19 20.27 2.04 9.28 1.02 12.43 1.11 12.69 0.43 0.51 -1.70 8.18 -1.28 9.88 0.60 0.85 0.85 3.24 2.04 5.45 2.64 4.17 1.02 21.80 4.17 22.06 3.92 0.09 -0.09 1.19 -6.05 2.38 -13.28 1.19 -7.24 2.64 -14.90 3.15 -16.86 l0.94 -3.75 10.73 0.60 c14.48 0.68 15.41 0.94 15.41 3.49 0 1.87 0.34 2.04 3.75 2.04 2.13 0 4.77 0.34 5.96 0.85 2.04 0.77 2.21 1.19 2.21 6.13 0 5.36 -1.36 22.91 -2.13 27.34 -0.34 2.04 -0.17 2.30 2.04 2.30 4.68 0 5.19 0.60 5.19 6.05 l0 4.94 -4.43 0.26 -4.43 0.26 -1.45 9.37 c-3.75 25.29 -3.49 24.78 -11.33 23.84 -2.90 -0.34 -6.90 -0.51 -9.03 -0.43 -6.90 0.17 -12.09 -0.85 -12.52 -2.64 -0.34 -1.28 -1.28 -1.62 -4.26 -1.62 -5.96 0 -7.07 -1.02 -7.07 -6.22 0 -2.47 0.77 -10.39 1.70 -17.63 0.94 -7.24 1.70 -13.63 1.70 -14.14 0 -0.51 -2.38 -1.19 -5.71 -1.45 -3.24 -0.26 -6.90 -0.77 -8.35 -1.02 -2.30 -0.43 -2.72 -0.17 -4.26 2.47 -4.34 7.66 -13.80 20.35 -18.14 24.52 -2.64 2.55 -7.92 6.73 -11.67 9.20 -5.88 3.92 -7.49 4.68 -11.67 4.94 -3.92 0.34 -5.54 0 -7.92 -1.45 -1.70 -1.02 -3.41 -1.62 -3.83 -1.36 -0.94 0.60 -7.41 13.88 -8.09 16.69 -0.51 1.96 0.17 3.15 4.09 7.75 9.71 11.41 16.61 22.14 16.86 25.97 0.09 1.02 0.26 0.77 0.68 -0.60 l0.60 -2.13 52.71 0 c47.86 0 53.31 0.17 58.33 1.53 10.90 2.98 18.05 9.03 22.65 18.99 1.62 3.41 2.90 7.07 2.90 8.09 0 1.02 0.26 1.62 0.68 1.28 0.34 -0.34 0.77 -7.07 1.02 -14.82 l0.43 -14.22 58.42 -0.26 58.33 -0.17 1.02 26.99 c1.45 37.47 1.62 34.32 -1.79 34.32 -1.70 0 -3.41 -0.60 -4.17 -1.45 -0.68 -0.85 -6.22 -9.45 -12.26 -19.16 l-10.99 -17.71 -5.28 0 -5.36 0 0 34.83 c0 19.16 0.34 35.77 0.77 36.87 0.43 1.11 5.62 7.49 11.50 14.22 9.71 11.16 10.73 12.60 10.73 15.58 l0 3.24 -42.15 0 -42.15 0 0 -3.32 c0 -2.98 0.85 -4.34 7.15 -11.92 4 -4.68 8.77 -10.56 10.64 -13.11 l3.49 -4.60 0 -35.85 0 -35.94 -4.09 0 c-3.24 0 -4.51 0.43 -5.88 1.96 -0.94 1.02 -6.64 9.62 -12.60 19.16 -10.64 16.69 -10.99 17.20 -13.71 17.20 -3.66 0 -4.17 -1.79 -3.41 -11.33 l0.51 -6.98 -1.62 4.94 c-2.90 8.86 -8.69 14.99 -16.69 17.71 -1.87 0.60 -3.58 1.19 -3.75 1.36 -0.17 0.09 1.19 1.87 3.07 4 4.60 5.28 8 11.92 12.09 23.76 3.66 10.73 6.39 15.16 13.63 22.31 3.75 3.58 4.34 4.68 4.34 7.41 l0 3.24 -25.29 -0.17 -25.38 -0.26 -4.26 -16.61 c-5.19 -19.76 -6.56 -23.67 -10.22 -27.85 l-2.81 -3.24 -9.20 0 -9.28 0 -0.26 4.26 c-0.60 9.11 -0.09 10.13 11.75 24.87 8.86 10.99 11.07 14.31 11.07 16.35 l0 2.64 -42.58 0 -42.58 0 0 -3.07 c0 -2.30 0.77 -4.09 2.98 -6.81 l2.98 -3.58 -6.22 -0.34 -6.13 -0.26 -5.11 4.60 c-7.49 6.73 -15.50 11.67 -23.08 14.22 -5.88 2.04 -8.26 2.38 -19.50 2.55 -8.77 0.26 -14.39 -0.09 -17.88 -0.85z m88.99 -32.96 l5.11 -6.90 0 -30.49 0 -30.49 -4 -5.36 c-3.24 -4.43 -7.75 -10.05 -17.29 -21.46 -0.26 -0.34 -0.09 2.13 0.51 5.54 0.60 3.41 1.36 9.37 1.70 13.20 0.43 5.79 0.34 6.98 -0.68 7.24 -1.11 0.17 -0.85 1.36 1.19 6.56 4.43 10.90 5.11 16.52 4.60 34.15 -0.34 8.69 -0.60 16.95 -0.60 18.31 0 1.45 0.77 4.85 1.70 7.66 1.02 2.81 1.79 5.96 1.79 6.98 0 1.11 0.17 1.96 0.43 1.96 0.26 0 2.72 -3.07 5.54 -6.90z m-67.27 2.72 c9.96 -8 15.24 -24.35 14.22 -43.94 -0.60 -10.39 -3.41 -21.89 -7.15 -28.78 -2.55 -4.51 -8 -9.96 -10.13 -9.96 -2.04 0 -11.24 6.81 -15.58 11.50 -5.45 5.88 -7.58 11.41 -8.60 21.80 -2.04 20.18 2.21 38.66 10.73 47.26 6.05 5.96 10.99 6.64 16.52 2.13z m-109.34 -46.58 c4.26 -3.15 5.71 -5.96 6.13 -11.41 0.51 -6.47 -1.28 -11.33 -5.45 -15.41 l-2.98 -2.90 -13.63 -0.26 -13.54 -0.26 0 15.67 c0 8.60 0.26 15.92 0.60 16.26 0.34 0.34 6.47 0.51 13.63 0.34 11.50 -0.26 13.20 -0.43 15.24 -2.04z m249.85 -7.66 c6.47 -3.75 8.35 -10.81 4.43 -16.35 -3.58 -4.94 -5.96 -5.62 -19.93 -5.96 l-12.60 -0.34 0 11.84 c0 6.56 0.26 12.18 0.68 12.52 0.34 0.43 6.05 0.51 12.69 0.34 9.79 -0.34 12.52 -0.77 14.73 -2.04z m-165.12 -52.03 c2.98 -1.19 6.73 -1.45 18.90 -1.45 14.22 -0.09 14.99 -0.17 11.50 -1.28 -2.04 -0.68 -7.49 -1.19 -12.18 -1.19 -7.15 -0.09 -9.62 0.26 -15.50 2.30 -3.92 1.28 -7.07 2.55 -7.07 2.72 0 0.51 0.34 0.43 4.34 -1.11z m89.58 -81.24 c2.90 -2.47 3.32 -3.32 2.90 -5.19 -0.34 -1.28 -1.28 -2.47 -2.13 -2.72 -2.38 -0.77 -22.48 -3.24 -22.82 -2.81 -0.26 0.17 1.96 4.43 4.94 9.37 l5.28 9.03 4.17 -2.30 c2.30 -1.28 5.71 -3.66 7.66 -5.36z m-105 -0.09 c1.96 -3.92 4.26 -7.75 4.94 -8.60 0.68 -0.77 1.11 -1.62 0.94 -1.79 -0.43 -0.26 -23.84 2.64 -24.18 3.07 -0.09 0.17 -0.43 1.28 -0.77 2.55 -0.34 1.70 0 2.90 1.36 4.51 1.79 2.04 10.99 7.07 13.11 7.24 0.43 0 2.55 -3.15 4.60 -6.98z"/>
 </g>
 <g fill="#000000">
  <path d="M414.71 813.07 c-94.01 -3.15 -186.41 -42.58 -253.60 -108.32 -47.01 -45.98 -79.28 -100.31 -97.16 -163.67 -9.03 -32.02 -12.52 -62.67 -11.75 -102.02 0.51 -24.52 1.87 -38.49 5.71 -58.84 9.54 -50.16 33.89 -105 64.72 -145.62 27.16 -35.77 55.27 -62.67 90.27 -86.43 53.82 -36.36 114.96 -58.59 179.68 -65.23 19.33 -1.96 61.23 -2.04 77.92 -0.09 51.01 5.96 93.50 18.56 137.95 41.05 49.99 25.21 94.61 62.50 128.93 107.64 35.25 46.41 59.35 101.85 68.55 157.88 6.39 38.49 6.22 81.66 -0.43 119.81 -16.09 92.22 -69.15 175.85 -146.64 231.11 -51.69 36.87 -107.04 59.27 -170.65 68.98 -23.76 3.66 -44.79 4.77 -73.49 3.75z m-136.93 -69.06 c0.34 -0.60 0.85 -2.38 1.19 -4 1.45 -8.18 3.83 -18.22 4.77 -20.27 1.02 -2.13 1.62 -2.30 6.47 -2.55 4.77 -0.26 5.28 -0.43 5.79 -2.38 1.02 -4.09 -0.51 -4.60 -13.80 -4.60 -6.64 0 -13.11 0.34 -14.31 0.85 -2.04 0.77 -3.92 4.60 -2.72 5.71 0.26 0.34 2.64 0.43 5.19 0.34 l4.68 -0.17 0 2.81 c0 1.53 -0.60 5.11 -1.28 8 -2.30 9.96 -2.98 15.92 -1.96 17.12 1.11 1.36 4.94 0.77 5.96 -0.85z m94.61 -0.43 c2.13 -1.96 4.85 -10.47 4.85 -15.07 l0 -2.13 -8.43 0 c-10.73 0 -12.86 0.77 -12.86 4.34 l0 2.72 5.96 -0.51 c5.88 -0.51 5.96 -0.43 5.96 1.53 0 3.32 -2.13 4.68 -7.32 4.68 -6.64 0 -8 -0.94 -8 -5.45 0 -4.09 2.04 -11.84 3.92 -14.73 1.19 -1.87 1.79 -1.96 12.18 -1.96 11.84 0 12.01 -0.09 12.01 -4.77 l0 -2.04 -11.24 0 c-14.48 0 -17.46 0.51 -19.25 3.15 -1.79 2.81 -5.11 15.50 -5.79 21.97 -0.43 4.43 -0.26 5.45 1.28 7.41 2.21 2.81 4 3.07 15.58 2.90 8.26 -0.09 9.28 -0.26 11.16 -2.04z m12.43 0.94 c1.36 -1.19 2.55 -5.02 5.19 -16.78 1.87 -8.43 3.41 -15.58 3.41 -16.01 0 -1.28 -4.09 -0.68 -5.96 0.85 -1.53 1.19 -2.55 4.51 -5.19 16.35 -1.87 8.18 -3.15 15.33 -2.90 15.92 0.51 1.53 3.32 1.36 5.45 -0.34z m11.75 0.17 c1.28 -0.94 2.04 -2.90 2.90 -8 0.60 -3.75 1.36 -7.32 1.70 -7.83 1.02 -1.70 2.21 -0.09 2.81 3.66 0.68 4.34 3.92 10.47 5.54 10.47 0.68 0 2.72 -2.81 4.60 -6.13 3.32 -5.88 5.71 -7.92 5.71 -4.85 0 0.77 -0.43 3.83 -1.02 6.90 -1.11 6.13 -0.43 7.66 2.98 6.73 2.64 -0.60 2.98 -1.70 6.98 -19.16 3.75 -16.44 3.75 -16.26 0.26 -16.18 -4.51 0.09 -5.36 0.77 -11.33 8.94 -7.41 10.30 -7.83 10.73 -8.52 6.56 -0.34 -1.79 -1.02 -5.71 -1.53 -8.77 l-1.02 -5.54 -4.26 0 -4.17 0 -1.53 5.02 c-0.85 2.72 -2.55 10.13 -3.83 16.44 -1.96 9.88 -2.13 11.58 -1.11 12.18 1.79 1.11 2.72 1.02 4.85 -0.43z m38.41 -0.26 c0.94 -0.94 2.47 -5.79 4 -12.35 1.36 -5.96 2.72 -10.81 3.07 -10.81 1.19 0 13.45 17.63 14.05 20.10 1.11 4.85 3.66 6.05 5.79 2.72 1.02 -1.62 8.18 -30.66 8.18 -33.13 0 -1.19 -5.62 -0.94 -6.56 0.34 -0.51 0.51 -1.36 3.15 -1.96 5.71 -1.87 8.60 -2.64 11.07 -3.24 11.07 -0.34 0 -2.72 -2.81 -5.19 -6.13 -7.49 -9.96 -8.52 -10.90 -12.18 -10.90 -2.38 0 -3.49 0.51 -4.51 1.96 -1.62 2.55 -7.66 29.80 -6.98 31.59 0.68 1.79 3.66 1.70 5.54 -0.17z m60.97 0.43 c1.02 -0.77 2.64 -5.88 5.28 -16.78 2.04 -8.69 3.58 -16.26 3.32 -16.86 -0.26 -0.77 -3.15 -0.94 -12.52 -0.60 -14.73 0.60 -15.33 0.77 -16.69 2.98 -1.19 1.87 -6.98 26.74 -6.98 29.80 0 1.45 0.51 1.70 3.32 1.70 3.49 0 3.49 0 4.68 -5.28 0.51 -2.30 0.77 -2.38 5.96 -2.38 5.79 0 7.15 -0.77 7.49 -4.34 0.26 -1.96 0 -2.04 -5.19 -2.30 l-5.45 -0.26 0.60 -4.60 c0.26 -2.55 0.85 -5.54 1.36 -6.73 0.77 -2.13 1.11 -2.21 7.66 -2.21 5.96 0 6.81 0.17 6.81 1.53 0 0.77 -1.19 6.64 -2.72 13.03 -1.45 6.39 -2.38 12.18 -2.13 12.94 0.68 1.70 3.07 1.87 5.19 0.34z m47.43 -1.45 c1.28 -1.70 8.43 -29.46 8.43 -32.44 0 -0.85 -2.64 -1.02 -4.68 -0.26 -0.68 0.34 -1.87 1.62 -2.64 2.98 -1.28 2.55 -7.15 27.59 -7.15 30.66 0 2.47 4 1.87 6.05 -0.94z m36.02 0.09 c2.13 -2.04 4.60 -9.71 6.56 -20.69 0.85 -4.43 0.85 -6.22 0 -8.18 -1.62 -3.92 -4.43 -4.60 -16.69 -4.26 -10.39 0.26 -10.90 0.34 -12.69 2.47 -2.21 2.64 -6.47 18.90 -6.47 24.70 0.09 7.15 2.90 8.52 17.63 8.09 8.69 -0.17 9.79 -0.43 11.67 -2.13z m-257.60 0.17 c1.36 -1.19 2.64 -5.02 5.28 -16.69 3.83 -16.69 3.83 -17.63 -1.11 -16.26 -2.81 0.85 -2.81 0.85 -5.79 13.11 -1.62 6.81 -3.32 12.86 -3.66 13.45 -0.85 1.19 -12.18 1.45 -12.94 0.26 -0.26 -0.43 0.77 -6.47 2.21 -13.28 1.79 -8.60 2.38 -12.77 1.70 -13.45 -1.36 -1.36 -5.79 0.94 -6.81 3.49 -1.36 3.49 -6.05 25.46 -6.05 28.27 l0 2.55 12.69 0 c10.81 0 12.94 -0.26 14.48 -1.45z m209.06 -0.51 c2.04 -2.04 3.92 -8.60 3.92 -13.37 0 -1.36 -0.94 -3.49 -2.04 -4.85 -1.96 -2.30 -2.47 -2.38 -9.28 -2.38 -4 0 -7.49 -0.26 -7.83 -0.60 -0.34 -0.34 -0.43 -1.62 -0.09 -2.81 l0.51 -2.13 11.07 0 c10.90 0 11.16 0 12.09 -2.04 1.96 -4.43 1.02 -4.77 -12.43 -4.77 -6.81 0 -13.28 0.34 -14.56 0.85 -2.47 0.94 -4.26 4.43 -5.11 10.39 -0.51 3.32 -0.34 4.17 1.19 5.71 1.53 1.53 2.81 1.79 8.43 1.79 9.11 0 10.39 0.51 10.39 3.58 0 5.19 -0.94 5.79 -9.62 5.79 -9.28 0.09 -13.88 0.94 -15.50 3.15 -2.64 3.49 -1.96 3.66 12.77 3.66 13.71 0 14.22 -0.09 16.09 -1.96z m-343.61 -43.77 c1.53 -1.28 2.30 -4.17 4.43 -15.50 1.45 -7.75 2.81 -14.39 2.98 -14.73 0.26 -0.34 2.47 -0.68 5.02 -0.68 3.75 0 4.85 -0.34 5.88 -1.87 0.77 -1.02 1.36 -2.55 1.36 -3.32 0 -1.36 -1.36 -1.53 -12.09 -1.79 -14.99 -0.34 -18.05 0.34 -18.39 4.26 l-0.26 2.72 5.11 0 c2.81 0 5.28 0.34 5.54 0.68 0.26 0.34 0 2.38 -0.43 4.51 -2.90 12.26 -4.85 25.12 -4 26.06 1.19 1.53 2.72 1.36 4.85 -0.34z m51.69 0.77 c1.62 -1.02 2.64 -3.75 4.17 -10.56 1.96 -8.94 4.60 -8.77 4.68 0.26 0 4.60 2.98 7.41 6.22 5.71 0.77 -0.43 2.55 -2.98 4 -5.79 2.55 -4.94 3.92 -6.56 4.85 -5.62 0.51 0.43 -0.17 5.02 -2.04 13.54 -0.43 2.21 -0.34 2.30 2.98 2.30 2.64 0 3.58 -0.34 4 -1.62 1.19 -4 7.15 -36.19 6.73 -36.79 -0.85 -1.36 -5.19 -0.77 -7.41 0.94 -1.19 0.94 -4.60 5.79 -7.49 10.64 -2.90 4.94 -5.62 8.94 -5.96 8.94 -0.34 0 -1.28 -3.75 -2.04 -8.26 -1.87 -11.41 -2.30 -12.18 -5.88 -12.18 -1.53 0 -3.32 0.51 -3.83 1.19 -1.28 1.53 -2.90 7.75 -5.54 21.80 -2.81 14.48 -2.81 16.18 -0.26 16.18 1.02 0 2.30 -0.34 2.81 -0.68z m265.86 -0.60 c0.17 -0.17 1.19 -3.75 2.21 -7.83 l1.79 -7.49 6.81 0.26 c3.75 0.17 6.98 0.51 7.15 0.68 0.34 0.34 -1.11 9.03 -2.13 12.94 -0.51 1.62 -0.26 1.87 1.96 1.87 1.45 0 3.15 -0.68 3.92 -1.53 0.85 -0.85 2.38 -6.13 3.66 -11.75 1.19 -5.54 2.90 -13.28 3.83 -17.12 0.85 -3.83 1.62 -7.24 1.62 -7.49 0 -0.26 -1.62 -0.43 -3.58 -0.26 l-3.58 0.26 -1.79 6.39 c-1.02 3.58 -2.13 6.90 -2.47 7.49 -0.43 0.68 -2.98 1.02 -7.49 1.02 -6.64 0 -6.81 -0.09 -6.39 -1.87 1.62 -6.81 2.30 -12.94 1.53 -13.71 -1.62 -1.62 -6.30 2.13 -7.49 6.05 -1.87 6.56 -6.30 31.68 -5.71 32.61 0.51 0.85 5.19 0.43 6.13 -0.51z m75.28 0.09 c0.68 -0.60 1.87 -4.26 2.72 -8.09 2.21 -10.47 5.02 -10.56 9.37 -0.26 3.58 8.43 5.02 9.88 8.77 9.28 1.70 -0.34 3.15 -0.68 3.41 -0.94 0.17 -0.17 -0.68 -2.38 -1.96 -4.85 -3.49 -6.98 -3.92 -9.11 -2.04 -10.13 0.85 -0.51 2.38 -0.85 3.32 -0.85 2.90 0 4 -2.21 5.19 -10.05 0.94 -6.90 0.94 -7.75 -0.43 -9.88 l-1.53 -2.30 -11.92 0.26 c-11.58 0.26 -11.92 0.34 -13.45 2.38 -1.62 2.13 -7.92 34.49 -7.07 35.94 0.68 1.11 4.34 0.77 5.62 -0.51z m32.53 0.68 c1.36 -0.51 2.21 -2.90 3.92 -11.67 0.94 -4.60 1.11 -4.94 3.15 -4.68 2.38 0.26 2.30 0 6.47 9.37 2.81 6.05 3.24 6.56 6.13 7.15 4.94 0.94 5.28 -0.34 2.21 -7.75 -1.53 -3.58 -2.55 -7.07 -2.30 -7.75 0.26 -0.68 1.45 -1.19 2.64 -1.19 3.92 0 5.36 -1.45 7.32 -7.66 2.55 -7.75 1.79 -11.67 -2.64 -13.80 -3.58 -1.79 -16.52 -2.04 -21.29 -0.43 -4.17 1.45 -6.81 5.71 -6.81 11.16 0 2.38 -0.77 7.92 -1.70 12.35 -2.81 13.20 -2.04 16.78 2.90 14.90z m59.10 -1.36 c2.13 -1.79 3.58 -5.79 5.71 -15.58 2.64 -12.35 2.81 -17.63 0.34 -19.93 -2.30 -2.13 -9.03 -2.90 -17.97 -2.21 -7.24 0.60 -10.22 1.79 -11.67 4.51 -1.28 2.30 -5.19 22.23 -5.19 26.23 0 4.77 2.47 7.83 6.64 8.18 6.22 0.51 21.03 -0.34 22.14 -1.19z m-440.09 -0.17 c0.51 -0.68 0.85 -2.13 0.68 -3.24 -0.26 -1.87 -0.60 -1.96 -8.35 -2.13 -11.50 -0.34 -11.92 -0.51 -11.92 -4.34 0 -4.51 1.11 -5.28 7.75 -5.28 6.22 0 7.92 -1.02 7.41 -4.43 -0.26 -1.79 -0.68 -1.96 -6.39 -2.21 l-6.22 -0.26 0 -2.55 c0 -5.45 0.77 -5.88 11.07 -5.88 l9.37 0 1.70 -2.72 c0.94 -1.53 1.70 -3.07 1.70 -3.41 0 -0.43 -5.71 -0.68 -12.69 -0.68 -16.95 0 -16.18 -0.68 -19.84 17.03 -2.81 14.05 -2.81 16.61 0.34 19.59 1.70 1.53 2.98 1.70 13.11 1.70 8.69 0 11.41 -0.26 12.26 -1.19z m46.67 -0.26 c0.43 -0.85 1.11 -3.83 1.45 -6.64 1.02 -8.35 0.60 -8.09 12.77 -8.09 12.35 0 12.09 0.17 14.56 -9.37 2.90 -10.99 0.51 -13.20 -14.65 -13.20 -14.56 0 -13.97 -0.60 -18.14 19.93 -1.45 7.15 -2.64 14.31 -2.64 15.92 0 2.72 0.17 2.90 2.98 2.90 1.96 0 3.15 -0.51 3.66 -1.45z m56.20 -1.02 c1.45 -4 0.43 -4.51 -9.71 -4.60 l-9.28 -0.17 -0.26 -2.30 c-0.26 -1.87 2.55 -17.88 4.68 -26.74 0.85 -3.92 -5.19 -2.81 -7.41 1.28 -1.28 2.38 -5.96 23.76 -5.96 27.16 0 1.53 0.60 3.92 1.28 5.28 l1.36 2.55 12.18 0 12.26 0 0.85 -2.47z m33.55 1.53 c0.94 -0.51 2.38 -2.47 3.24 -4.43 2.04 -4.68 5.11 -19.84 5.11 -25.21 0 -3.58 -0.34 -4.51 -2.21 -5.96 -2.04 -1.62 -3.41 -1.79 -13.28 -1.79 -13.03 0 -15.50 0.85 -16.78 5.79 -1.70 6.30 -4.34 21.63 -4.34 24.78 0 2.04 0.68 4.09 1.79 5.54 1.70 2.21 1.87 2.21 13.20 2.21 6.64 0 12.26 -0.43 13.28 -0.94z m48.28 -1.28 c2.21 -2.90 2.38 -3.24 4.68 -17.03 2.13 -12.60 1.87 -16.61 -1.19 -18.22 -2.64 -1.36 -24.35 -1.11 -25.80 0.34 -1.11 1.19 -7.41 31 -7.41 35.25 0 1.87 0.09 1.87 13.97 1.87 l14.05 0 1.70 -2.21z m32.44 0.60 c0.43 -0.94 0.85 -2.47 0.85 -3.41 0 -1.70 -0.43 -1.79 -9.71 -1.79 -10.56 0 -10.81 -0.09 -10.05 -4.94 0.43 -3.41 2.55 -4.43 8.69 -4.43 4.60 0 7.07 -1.70 6.64 -4.60 -0.26 -1.53 -0.85 -1.79 -4.94 -1.87 -7.83 -0.09 -7.66 -0.09 -7.66 -3.24 0 -5.62 0 -5.62 11.41 -5.62 11.24 0 12.43 -0.43 12.43 -4.43 l0 -2.47 -13.28 0.26 c-13.11 0.26 -13.37 0.26 -14.90 2.38 -1.79 2.47 -5.88 21.89 -5.88 28.02 0 2.21 0.60 4.77 1.36 5.88 1.19 1.79 1.87 1.87 12.69 1.87 10.47 0 11.50 -0.17 12.35 -1.62z m32.53 0.17 c0.85 -0.77 1.53 -2.30 1.53 -3.41 0 -1.96 -0.09 -1.96 -9.79 -1.96 l-9.79 0 0 -3.15 c0 -1.79 1.19 -8.77 2.55 -15.58 1.45 -7.49 2.13 -12.69 1.70 -13.11 -1.19 -1.19 -4.77 0.68 -6.47 3.41 -1.79 2.72 -6.22 22.23 -6.30 27.59 0 2.21 0.60 4.68 1.36 5.79 1.19 1.79 1.87 1.87 12.43 1.87 9.20 0 11.50 -0.26 12.77 -1.45z m56.46 0.51 c0.34 -0.51 2.13 -8.43 3.92 -17.63 1.87 -9.20 3.58 -17.46 3.83 -18.22 0.94 -3.15 -5.54 -1.36 -7.32 1.87 -1.19 2.21 -7.58 33.89 -6.98 34.49 0.85 0.77 6.05 0.43 6.56 -0.51z m33.81 -1.11 c1.87 -4.17 0.68 -4.77 -8.94 -4.77 -9.71 0 -10.81 -0.51 -10.81 -4.68 0 -3.92 1.28 -4.68 8.26 -4.68 5.36 0 6.30 -0.26 7.07 -1.70 0.51 -1.02 0.68 -2.55 0.43 -3.41 -0.51 -1.45 -1.36 -1.70 -6.39 -1.70 -3.24 0 -6.13 -0.34 -6.39 -0.85 -0.26 -0.43 -0.09 -2.38 0.43 -4.26 l0.94 -3.41 9.37 0 9.28 0 1.70 -2.72 c0.85 -1.45 1.45 -2.98 1.19 -3.41 -0.26 -0.34 -6.13 -0.68 -13.03 -0.68 -11.58 0 -12.69 0.17 -14.14 1.70 -2.04 2.21 -6.30 20.95 -6.39 27.76 0 4 0.34 5.54 1.70 6.98 1.62 1.79 2.55 1.87 13.28 1.87 11.33 0 11.50 0 12.43 -2.04z m-92.14 -52.03 c75.62 -6.64 142.04 -29.80 198.07 -69.06 8.26 -5.79 8.35 -5.88 5.62 -6.13 -1.79 -0.17 -4.60 0.51 -7.24 1.79 -2.47 1.11 -7.49 3.07 -11.24 4.34 -3.75 1.28 -12.18 4.26 -18.73 6.64 -41.39 14.73 -92.91 26.74 -137.53 32.10 -27.68 3.32 -38.24 3.92 -73.66 3.92 -35.51 0 -46.50 -0.60 -73.23 -3.92 -53.82 -6.64 -113.34 -22.23 -159.58 -41.81 -14.39 -6.13 -12.01 -2.38 6.73 10.13 55.44 37.04 123.14 58.42 200.63 63.27 15.58 0.94 52.54 0.34 70.17 -1.28z m-211.53 -87.54 c8.09 -2.04 16.86 -5.54 26.23 -10.39 l4.17 -2.13 3.07 1.79 c1.70 0.94 5.79 4 9.03 6.73 3.32 2.81 6.22 5.11 6.56 5.11 0.34 0 0.34 -9.54 0.09 -21.20 l-0.51 -21.20 14.48 -15.24 c8 -8.35 15.33 -15.92 16.35 -16.78 0.94 -0.94 1.79 -1.96 1.79 -2.38 0 -1.11 -105.34 -0.85 -106.02 0.26 -0.34 0.43 2.64 3.83 6.56 7.41 20.44 18.82 27.08 26.14 27.08 30.32 0 4.17 -12.09 11.67 -21.97 13.45 -10.30 1.87 -23.76 -1.96 -30.74 -8.86 -9.54 -9.45 -13.71 -25.38 -12.01 -46.75 1.28 -16.78 4.77 -26.31 12.77 -35.08 7.58 -8.26 16.86 -11.41 28.95 -9.88 11.58 1.53 26.48 7.49 35.77 14.31 8.86 6.47 15.84 12.77 20.44 18.39 2.90 3.49 5.54 6.39 6.05 6.39 0.43 0 0.77 -11.07 0.77 -27.68 l0 -27.68 -1.96 0 c-1.11 0 -4.43 2.21 -8.18 5.54 l-6.30 5.54 -5.45 -5.11 c-7.32 -6.90 -19.93 -13.11 -31.42 -15.50 -10.99 -2.21 -27.76 -1.79 -38.66 1.02 -28.36 7.24 -52.29 28.78 -61.48 55.44 -2.64 7.75 -2.81 8.52 -2.81 21.63 0 11.67 0.26 14.56 1.96 20.27 5.79 20.10 18.82 35.60 38.49 45.64 15.16 7.75 23.16 9.45 43.43 9.03 12.52 -0.17 16.26 -0.60 23.50 -2.38z m203.01 -5.54 c0 -0.43 -6.05 -6.47 -13.37 -13.45 -17.71 -16.86 -18.14 -17.46 -18.14 -26.23 0 -3.83 0.34 -8.09 0.77 -9.54 0.43 -1.45 9.03 -15.07 19.08 -30.23 13.45 -20.27 20.78 -30.49 27.76 -38.41 5.28 -6.05 9.79 -10.90 10.13 -10.90 0.68 0 14.31 13.71 19.16 19.42 l3.15 3.58 0 36.28 c0 24.78 -0.26 36.79 -0.94 38.06 -0.51 1.02 -7.49 8.43 -15.50 16.52 l-14.48 14.65 41.64 0.26 c22.91 0.17 41.73 0.17 41.90 0.17 0.68 -0.26 -7.83 -10.05 -17.37 -19.93 l-10.81 -11.07 -0.26 -41.13 c-0.17 -36.45 0.09 -44.71 1.70 -43.17 0.43 0.51 11.07 38.92 23.59 84.73 4.26 15.92 8.26 29.46 8.77 30.15 1.28 1.62 21.63 0.85 22.74 -0.85 1.02 -1.62 1.62 -3.58 9.79 -34.83 8.09 -30.74 18.22 -68.04 20.95 -76.81 1.11 -3.83 2.13 -5.79 2.98 -5.79 1.02 0 1.19 0.60 0.77 2.64 -0.26 1.45 -0.51 21.12 -0.51 43.69 l-0.09 40.96 -14.39 15.24 c-8 8.35 -14.48 15.41 -14.48 15.75 0 0.26 23.42 0.51 51.95 0.60 28.61 0 51.95 -0.09 51.95 -0.09 0 -0.09 -7.15 -7.32 -15.92 -16.01 l-16.01 -15.84 -0.26 -37.30 -0.17 -37.30 16.26 -16.01 c8.94 -8.86 16.09 -16.09 15.92 -16.18 -0.09 -0.09 -22.14 -0.09 -48.88 0.09 l-48.62 0.26 -0.94 4 c-3.32 13.28 -15.24 56.46 -15.75 56.88 -0.34 0.34 -0.77 0.43 -1.02 0.17 -0.26 -0.26 -4.26 -14.05 -8.77 -30.57 l-8.35 -30.15 -72.13 -0.26 c-49.65 -0.09 -72.13 0.09 -72.13 0.68 0 0.51 4.26 5.45 9.37 11.07 5.19 5.54 9.37 10.47 9.37 10.90 0 0.85 -14.99 25.38 -19.84 32.36 -2.04 3.15 -2.72 3.58 -3.58 2.55 -2.30 -2.30 -20.35 -28.44 -21.20 -30.66 -0.77 -2.04 -0.34 -2.90 4 -8.52 2.64 -3.41 7.15 -9.03 10.05 -12.35 l5.19 -6.22 -49.05 0 c-26.99 0 -49.14 0.34 -49.39 0.77 -0.26 0.43 3.41 3.92 8.26 7.83 16.26 13.37 17.88 15.41 48.20 62.33 11.75 18.31 11.50 17.54 11.50 26.65 0.09 9.79 -0.09 10.05 -17.54 27.16 l-13.03 12.77 47.69 0.43 c26.23 0.26 50.07 0.51 53.05 0.68 2.90 0.09 5.28 -0.17 5.28 -0.51z m-272.24 -164.95 c7.83 -1.62 13.37 -4.85 19.42 -11.24 5.54 -6.05 7.49 -9.37 9.79 -16.86 2.13 -6.81 2.13 -23.25 0.09 -31 -4.09 -15.33 -15.41 -26.57 -31.34 -31.08 -2.47 -0.68 -12.86 -2.72 -22.91 -4.43 -10.05 -1.70 -19.67 -3.58 -21.29 -4.26 -11.16 -4.68 -10.05 -15.07 1.96 -18.65 7.58 -2.21 16.52 -1.19 27.08 3.15 11.58 4.85 19.59 10.99 31.68 24.52 l5.62 6.39 0.09 -25.29 c0 -21.20 -0.17 -25.38 -1.19 -25.38 -0.68 0 -4.60 2.13 -8.77 4.68 -4.26 2.55 -8 4.68 -8.52 4.68 -0.43 0 -2.38 -1.11 -4.34 -2.47 -5.19 -3.83 -12.86 -7.49 -18.99 -9.03 -4.34 -1.19 -7.66 -1.36 -16.01 -1.02 -9.79 0.43 -10.99 0.68 -16.78 3.49 -8 3.75 -13.71 9.54 -17.80 17.80 -9.54 19.33 -6.56 42.07 7.24 56.03 8.77 8.86 19.25 12.69 46.92 16.95 9.54 1.45 18.31 3.15 19.50 3.66 4.85 2.30 5.02 8.35 0.34 13.03 -3.49 3.49 -7.32 4.60 -15.92 4.60 -21.20 0 -39.77 -9.71 -52.54 -27.59 -7.75 -10.90 -7.66 -11.16 -7.66 20.86 l0 27.34 2.21 -1.45 c1.19 -0.77 4.85 -3.49 8.09 -5.96 4.26 -3.24 6.39 -4.43 7.41 -4 0.77 0.34 4.94 2.38 9.11 4.51 7.49 3.83 15.24 6.73 22.14 8.35 5.28 1.19 18.99 1.02 25.38 -0.34z m240.23 -1.62 c8.52 -2.90 16.69 -8.18 24.44 -15.75 l6.05 -6.05 2.13 1.70 c1.62 1.19 3.49 1.70 6.81 1.70 4 0 4.68 -0.26 5.45 -2.04 0.77 -1.62 0.60 -3.15 -0.94 -7.41 -2.13 -5.88 -2.21 -7.49 -1.28 -28.87 0.68 -15.24 -0.26 -21.12 -4.94 -32.70 -8.09 -19.67 -26.82 -37.21 -43.94 -41.05 -9.62 -2.13 -23.08 -1.28 -32.10 2.04 -15.58 5.71 -27.68 16.35 -35.94 31.59 l-3.41 6.22 -1.45 -4.51 c-5.45 -16.61 -15.84 -26.99 -31.17 -31.17 -4.94 -1.36 -10.13 -1.53 -51.60 -1.53 -34.49 0 -46.41 0.26 -47.18 1.02 -0.77 0.77 1.11 3.58 8.35 12.35 5.11 6.22 9.96 12.26 10.73 13.45 1.28 1.87 1.45 5.45 1.45 35 l0 32.96 -2.72 3.83 c-1.53 2.13 -6.56 8.09 -11.07 13.37 -4.60 5.19 -8.35 9.79 -8.35 10.22 0 0.51 15.07 0.85 39.60 0.85 21.80 0 39.60 -0.17 39.60 -0.34 0 -0.17 -4.68 -5.88 -10.30 -12.60 -5.71 -6.64 -10.90 -13.45 -11.58 -14.99 -0.68 -1.62 -1.11 -4.77 -0.94 -7.24 l0.26 -4.43 21.29 -0.60 c28.53 -0.77 32.53 -1.62 42.75 -9.28 2.47 -1.87 4.94 -3.32 5.54 -3.32 0.77 0 1.53 2.21 2.13 6.39 0.60 3.49 2.55 10.13 4.51 14.73 1.87 4.60 3.41 9.03 3.41 9.71 0 0.77 -1.53 3.32 -3.41 5.71 -1.87 2.38 -3.41 4.51 -3.41 4.77 0 0.26 3.83 0.43 8.43 0.43 l8.43 0 5.79 4.51 c14.22 11.07 24.27 14.39 41.64 13.88 8.35 -0.26 11.50 -0.68 16.95 -2.55z m118.71 -6.22 c-0.77 -0.85 -5.79 -7.07 -11.16 -13.80 -10.99 -13.63 -11.16 -13.97 -10.64 -26.06 l0.26 -6.81 11.84 0 11.75 0 2.81 3.24 c3.66 4.17 5.02 8.09 10.22 27.85 l4.26 16.61 22.82 0.26 c12.52 0.09 22.74 -0.09 22.74 -0.51 0 -0.34 -1.96 -2.55 -4.34 -4.85 -7.24 -7.15 -9.96 -11.58 -13.63 -22.31 -5.36 -15.50 -9.11 -21.89 -16.09 -27.42 -4.60 -3.66 -4.43 -4.51 0.85 -5.62 13.28 -2.81 21.63 -13.71 21.63 -28.10 0 -6.05 -0.34 -7.58 -3.07 -13.28 -4.68 -10.13 -11.75 -16.09 -22.40 -19.16 -4.60 -1.36 -10.39 -1.53 -55.61 -1.62 -27.76 0 -50.67 0.17 -50.84 0.43 -0.17 0.34 3.32 4.94 7.75 10.30 4.43 5.36 9.37 11.67 10.99 13.97 l2.98 4.26 0.09 32.61 0.09 32.70 -3.15 4.60 c-1.79 2.55 -6.81 8.77 -11.24 13.80 -4.34 5.02 -7.92 9.37 -7.92 9.79 0 0.34 18.05 0.60 40.19 0.60 38.15 0 40.02 -0.09 38.83 -1.45z m156.01 0.77 c0 -0.43 -4.85 -6.22 -10.73 -13.03 -5.88 -6.73 -11.07 -13.11 -11.50 -14.22 -0.43 -1.11 -0.77 -18.82 -0.77 -39.43 l0 -37.38 7.92 0 7.83 0 11.50 18.39 c6.30 10.13 12.01 18.82 12.69 19.33 1.02 0.85 1.11 -0.60 0.68 -10.47 -0.34 -6.30 -0.85 -19.08 -1.11 -28.36 l-0.60 -16.78 -55.86 0.17 -55.86 0.26 -0.26 8.52 c-0.09 4.68 -0.51 16.78 -0.94 26.82 -0.43 10.05 -0.51 18.82 -0.17 19.42 0.43 0.68 4.68 -5.28 11.58 -16.18 5.96 -9.54 11.67 -18.14 12.60 -19.16 1.53 -1.70 2.55 -1.96 8.43 -1.96 l6.64 0 0 38.49 0 38.41 -3.49 4.60 c-1.87 2.55 -6.64 8.43 -10.64 13.11 -3.92 4.77 -7.15 8.94 -7.15 9.37 0 0.43 16.44 0.77 39.60 0.77 21.80 0 39.60 -0.34 39.60 -0.68z m-237.59 -102.02 c-1.36 -10.56 -3.41 -19.16 -5.54 -23.33 -2.30 -4.43 -8.09 -12.52 -14.73 -20.35 -4.51 -5.28 -4.60 -5.54 -4.26 -9.79 0.34 -4.26 7.24 -19.84 9.62 -21.80 0.77 -0.60 2.38 0 5.62 2.21 3.66 2.38 5.11 2.98 7.32 2.64 3.41 -0.60 14.56 -8.09 20.86 -14.05 5.36 -5.11 17.29 -21.80 19.93 -28.10 0.09 -0.17 3.83 0.43 8.43 1.19 6.98 1.19 8.43 1.19 9.03 0.26 1.96 -3.07 1.36 -3.41 -8.60 -5.02 -10.13 -1.62 -16.86 -3.58 -18.39 -5.19 -1.79 -1.96 -3.66 -2.04 -4.94 -0.34 -0.85 1.19 -2.38 1.19 -14.99 -0.34 -17.54 -2.13 -26.48 -2.55 -26.99 -1.19 -0.51 1.45 4.26 2.64 16.78 4.09 20.44 2.30 20.18 2.30 21.29 6.39 1.11 4.17 0.17 6.73 -3.66 9.88 -4.09 3.32 -15.33 9.37 -15.67 8.35 -0.17 -0.43 -3.07 -5.36 -6.47 -10.90 -5.96 -9.88 -6.30 -10.22 -11.67 -13.03 -21.46 -11.16 -20.27 -10.05 -16.95 -16.69 1.70 -3.24 1.79 -4.09 0.94 -10.90 -1.62 -13.28 -5.02 -17.46 -13.63 -16.61 -8.43 0.77 -10.90 4 -12.18 15.92 -0.85 7.32 -0.77 7.83 1.28 12.43 1.53 3.15 1.96 5.11 1.36 5.71 -0.43 0.60 -6.13 3.75 -12.60 7.15 -12.86 6.64 -13.11 6.81 -19.33 18.48 -5.11 9.62 -4.43 9.37 -13.03 5.02 -4.09 -2.13 -8.35 -4.77 -9.45 -6.05 -1.70 -1.96 -1.96 -2.90 -1.53 -6.90 0.26 -2.55 0.68 -4.77 0.85 -5.02 0.26 -0.17 7.75 -1.28 16.69 -2.38 10.64 -1.36 17.54 -2.64 19.93 -3.75 l3.58 -1.62 -4.77 -0.09 c-4.94 -0.09 -26.74 1.96 -34.57 3.15 -2.47 0.43 -4.94 0.43 -5.54 0.09 -1.45 -0.94 -5.28 -0.94 -6.22 0 -1.28 1.11 -11.50 4.17 -16.18 4.77 -6.56 0.77 -9.79 2.04 -9.79 3.75 0 2.38 0.51 2.47 7.07 1.28 3.32 -0.60 7.07 -1.11 8.26 -1.11 2.30 -0.09 1.87 -0.60 12.09 14.56 8.69 12.86 15.33 18.99 27.76 25.29 3.15 1.62 4 1.70 6.98 0.85 1.87 -0.60 4.17 -1.96 5.19 -2.98 1.11 -1.11 2.21 -2.04 2.55 -2.04 1.36 0 6.73 8 8.43 12.52 l1.70 4.68 -3.58 6.73 c-1.96 3.66 -5.11 8.69 -6.98 11.16 -5.02 6.64 -14.99 21.37 -14.99 22.23 0 0.43 1.45 -0.34 3.24 -1.70 4.85 -3.83 10.22 -6.64 16.78 -8.86 5.11 -1.70 7.58 -2.04 17.03 -1.96 9.71 0 11.92 0.34 18.05 2.30 13.37 4.43 27.08 16.09 35.17 29.89 2.04 3.49 3.92 6.30 4 6.13 0.17 -0.17 -0.09 -3.24 -0.60 -6.98z m-176.53 -66.85 l3.83 -1.02 -0.43 -3.92 c-1.28 -9.88 -10.64 -70.08 -10.99 -70.42 -0.26 -0.17 -2.21 -0.09 -4.34 0.17 l-4 0.60 0 5.19 c0 14.39 7.15 66.25 9.54 69.32 1.11 1.28 1.53 1.28 6.39 0.09z m15.50 -0.43 c2.30 -0.51 2.55 2.64 -2.55 -30.15 -6.64 -43 -7.75 -49.82 -8.35 -50.33 -0.26 -0.26 -2.55 -0.09 -4.94 0.34 -4.09 0.68 -4.51 0.94 -4.51 2.98 0 2.04 10.56 72.47 11.50 76.64 0.51 2.04 1.36 2.04 8.86 0.51z m252.40 0.09 c0.68 -0.68 1.70 -3.83 2.30 -6.98 4.68 -27.08 8.69 -65.14 7.07 -66.76 -0.94 -0.94 -8.77 -2.21 -8.77 -1.45 0 0.26 -2.13 15.16 -4.68 33.13 -2.64 17.97 -4.94 34.66 -5.28 37.13 l-0.51 4.34 3.75 0.85 c2.04 0.43 4 0.85 4.34 0.94 0.34 0.09 1.11 -0.51 1.79 -1.19z m-12.69 -1.87 c1.19 -6.05 3.24 -19.33 5.62 -36.87 1.45 -10.56 3.15 -22.99 3.83 -27.59 1.87 -12.60 1.79 -13.11 -1.62 -13.71 -5.19 -1.02 -6.73 -0.34 -7.49 3.15 -1.87 9.20 -10.90 75.11 -10.30 75.70 0.77 0.68 3.75 1.36 7.24 1.53 1.79 0.09 2.30 -0.34 2.72 -2.21z m-227.62 -3.32 c0.94 -1.11 0.60 -5.11 -2.13 -24.01 -3.32 -23.93 -7.75 -47.94 -9.20 -50.67 -0.68 -1.28 -1.45 -1.53 -3.92 -1.19 -1.62 0.34 -3.32 0.85 -3.75 1.28 -0.34 0.34 0.85 10.64 2.72 22.82 1.87 12.09 4.43 28.19 5.54 35.68 2.98 18.90 2.47 17.46 6.30 17.46 1.96 0 3.75 -0.51 4.43 -1.36z m214.93 -0.51 c1.45 -6.22 10.47 -73.57 9.88 -74.17 -0.43 -0.43 -2.21 -0.94 -4.09 -1.19 l-3.41 -0.43 -0.94 3.66 c-2.04 8.09 -7.32 42.66 -9.62 62.42 -1.02 8.77 -0.94 9.37 0.51 10.39 0.85 0.68 2.90 1.19 4.43 1.19 2.21 0 2.90 -0.43 3.24 -1.87z m-259.47 -27.51 c0.17 -0.09 0 -1.28 -0.34 -2.47 -0.43 -1.70 -1.02 -2.21 -2.38 -2.04 -1.87 0.26 -2.72 2.38 -1.87 4.60 0.34 0.94 1.11 1.11 2.38 0.68 1.11 -0.26 2.04 -0.68 2.21 -0.77z m299.92 -2.04 c0 -2.21 -1.19 -3.49 -3.49 -3.49 -0.43 0 -0.77 1.36 -0.77 2.98 0 2.64 0.26 2.98 2.13 2.98 1.79 0 2.13 -0.43 2.13 -2.47z"/>
  <path d="M558.37 737.11 c-0.51 -1.36 2.21 -14.39 3.75 -17.71 1.02 -2.30 1.28 -2.38 7.66 -2.38 8.52 0 8.94 0.60 7.07 9.96 -0.77 3.66 -1.96 7.66 -2.55 9.03 -1.19 2.21 -1.45 2.30 -8.35 2.30 -5.28 0 -7.24 -0.34 -7.58 -1.19z"/>
  <path d="M585.88 674.95 c0 -1.11 0.77 -2.98 1.79 -4.26 1.53 -2.04 2.30 -2.21 7.58 -2.21 7.15 0 8.35 1.02 6.47 5.45 l-1.28 3.07 -7.24 0 c-7.15 0 -7.32 -0.09 -7.32 -2.04z"/>
  <path d="M619.51 675.97 c-0.17 -0.60 -0.09 -2.47 0.26 -4.09 l0.68 -2.98 7.15 0 c7.24 0 7.24 0 7.49 2.30 0.60 4.77 -0.85 5.79 -8.43 5.79 -4.68 0 -6.90 -0.34 -7.15 -1.02z"/>
  <path d="M652.47 692.15 c-1.45 -1.45 -1.19 -5.79 0.94 -15.16 l1.87 -8.09 7.66 0 7.66 0 0.26 2.38 c0.34 2.98 -2.90 19.25 -4.17 20.78 -1.28 1.45 -12.77 1.53 -14.22 0.09z"/>
  <path d="M286.55 677.16 c-2.21 -0.60 -2.55 -1.02 -2.38 -3.41 0.17 -4.68 1.36 -5.36 8.69 -5.11 l6.47 0.26 0.26 2.55 c0.43 4 -1.45 5.71 -6.30 6.05 -2.30 0.09 -5.28 -0.09 -6.73 -0.34z"/>
  <path d="M348.89 692.58 c-0.34 -0.26 -0.60 -1.53 -0.60 -2.72 0 -3.24 3.32 -19.93 4.17 -20.78 0.34 -0.34 3.92 -0.60 7.83 -0.43 7.07 0.26 7.15 0.26 7.41 2.64 0.34 2.98 -2.90 19.25 -4.17 20.78 -1.02 1.19 -13.54 1.62 -14.65 0.51z"/>
  <path d="M395.98 690.36 c0 -3.07 3.07 -19.76 3.83 -21.03 0.26 -0.51 3.75 -0.85 7.66 -0.85 6.05 0 7.15 0.26 7.41 1.53 0.43 2.04 -3.41 20.61 -4.51 21.97 -0.68 0.85 -3.07 1.19 -7.66 1.19 l-6.73 0 0 -2.81z"/>
  <path d="M412.50 364.98 c-12.52 -5.62 -19.25 -28.19 -16.61 -55.78 1.45 -14.99 5.45 -21.80 18.31 -30.83 6.22 -4.43 8.52 -4.94 12.35 -2.98 9.11 4.77 15.24 20.44 16.01 40.96 0.94 22.82 -3.83 38.15 -14.48 46.67 -2.55 2.13 -4.17 2.64 -8.09 2.90 -2.90 0.17 -5.88 -0.17 -7.49 -0.94z"/>
  <path d="M285.02 317.97 c-0.34 -0.34 -0.60 -8.86 -0.60 -18.82 l0 -18.22 16.09 0.26 16.18 0.26 2.98 2.90 c4.51 4.43 5.88 8.69 5.54 17.80 -0.34 8.26 -1.36 10.56 -6.22 14.14 -2.13 1.62 -3.75 1.79 -17.80 2.04 -8.60 0.17 -15.84 0 -16.18 -0.34z"/>
  <path d="M536.31 310.31 c-0.43 -0.34 -0.68 -7.07 -0.68 -14.99 l0 -14.48 15.16 0.34 c16.69 0.26 18.82 0.85 22.48 5.96 2.72 3.92 2.81 13.88 0.17 17.46 -3.75 5.02 -6.05 5.71 -21.97 6.05 -8 0.17 -14.82 0.09 -15.16 -0.34z"/>
 </g>
</svg>